<svg width="800" height="800" xmlns="http://www.w3.org/2000/svg">
 <!-- Created with Method Draw - http://github.com/duopixel/Method-Draw/ -->

 <g>
  <title>background</title>
  <rect x="-1" y="-1" width="802" height="802" id="canvas_background" fill="#86a16e"/>
 </g>
 <g>
  <title>Layer 1</title>
  <path fill="#007fff" stroke-width="1.5" d="m489.616042,244.895556c0,20.71068 -82.82733,37.5 -185.00002,37.5m185.00002,-37.5l0,0c0,20.71068 -82.82733,37.5 -185.00002,37.5c-102.17266,0 -184.99996,-16.78929 -184.99996,-37.5m0,0l0,0c0,-20.71066 82.8273,-37.49999 184.99996,-37.49999c102.17269,0 185.00002,16.78933 185.00002,37.49999l0,150.00007c0,20.71065 -82.82733,37.49993 -185.00002,37.49993c-102.17266,0 -184.99996,-16.78928 -184.99996,-37.49993l0,-150.00007z" id="svg_14" transform="rotate(-45 304.616027832031,319.8955688476562) "/>
  <rect fill="#007fff" stroke-width="1.5" x="437.5" y="263.453125" width="95" height="462" id="svg_15" transform="rotate(-45 484.9999999999998,494.4531249999999) "/>
 </g>
</svg>