<svg width="800" height="800" xmlns="http://www.w3.org/2000/svg">
 <!-- Created with Method Draw - http://github.com/duopixel/Method-Draw/ -->
 <g>
  <title>background</title>
  <rect fill="#86a16e" id="canvas_background" height="802" width="802" y="-1" x="-1"/>
 </g>
 <g>
  <title>Layer 1</title>
  <path transform="rotate(45 497.5575561523439,290.06915283203114) " id="svg_14" d="m682.557566,215.069138c0,20.710679 -82.827328,37.500003 -185.000019,37.500003m185.000019,-37.500003l0,0c0,20.710679 -82.827328,37.500003 -185.000019,37.500003c-102.172653,0 -184.999956,-16.78929 -184.999956,-37.500003m0,0l0,0c0,-20.710656 82.827303,-37.499992 184.999956,-37.499992c102.172691,0 185.000019,16.789336 185.000019,37.499992l0,150.000071c0,20.710656 -82.827328,37.499935 -185.000019,37.499935c-102.172653,0 -184.999956,-16.789279 -184.999956,-37.499935l0,-150.000071z" stroke-width="1.5" fill="#ff0000"/>
  <rect transform="rotate(45 323.00000000000034,470.4531249999999) " id="svg_15" height="462" width="95" y="239.453125" x="275.5" stroke-width="1.5" fill="#ff0000"/>
 </g>
</svg>