<svg width="800" height="800" xmlns="http://www.w3.org/2000/svg" style="vector-effect: non-scaling-stroke;" stroke="null">
 <!-- Created with Method Draw - http://github.com/duopixel/Method-Draw/ -->

 <g stroke="null">
  <title stroke="null">background</title>
  <rect stroke="null" fill="#86a16e" id="canvas_background" height="802" width="802" y="-1" x="-1"/>
  <g style="vector-effect: non-scaling-stroke;" stroke="null" display="none" overflow="visible" y="0" x="0" height="100%" width="100%" id="canvasGrid">
   <rect fill="url(#gridpattern)" stroke-width="0" y="0" x="0" height="100%" width="100%"/>
  </g>
 </g>
 <g stroke="null">
  <title stroke="null">Layer 1</title>
  <g stroke="null" id="svg_6">
   <path stroke="null" fill="#ff0000" id="svg_5" d="m301.853452,240.448458c0.432981,-0.39068 0.421927,-0.317056 4.858768,-0.317056c1.741899,0.200684 8.009068,9.355535 8.223132,11.02869c0.271489,0.374649 1.999638,2.957411 2.110445,3.677022c1.159019,6.751399 1.826284,13.894071 2.034147,21.092555c1.48389,1.145321 3.019273,1.981899 4.57946,2.428984c1.286271,0.599082 0.233475,-1.147102 3.113903,3.862268c-0.012671,0.953544 -0.011593,1.909463 -0.011593,2.865975c40.73498,-0.042749 81.470769,0.013062 122.20548,-0.027906c1.412984,-6.312032 5.750611,-6.178441 7.331827,-0.004156c9.493496,0.061749 18.98888,-0.029687 28.482376,0.04453c0.015367,-0.593738 -0.147472,-4.339634 1.016939,-8.886482c0.572365,-1.958743 0.233206,-1.485533 5.858452,-1.507502c0.888339,0.051061 1.785574,-0.125873 2.671217,0.121123c0.276612,0.42571 0.492024,1.005199 0.666187,1.643468c13.159006,0.252933 1.297864,-1.306818 32.864488,4.762375c0.002966,1.286037 -0.00674,2.572075 0.005662,3.855737c109.537419,-0.137154 105.294692,0.178715 107.504081,-0.13181c-0.447539,-0.227996 -0.904784,0.084905 -1.344775,-0.130029c0.299258,-0.419179 3.537179,-1.791309 3.80705,-1.892838c1.281958,-0.040374 2.56769,-0.033843 3.851535,0.006531c0.31813,0.536146 -0.462637,0.194152 16.345702,0.3129c2.289191,-30.308561 1.530261,-24.813513 2.886629,-28.688843c0.882677,-2.60948 3.608084,-5.134649 6.109721,-4.217917c0.473691,0.061749 0.883755,0.643019 1.336956,0.915545c2.458231,-6.628495 7.81118,-7.079142 9.825107,-1.243288c0.322983,0.936919 0.744371,1.737278 0.935789,2.870131c0.154752,0.915545 0.496877,1.737278 0.447539,2.772164c-0.021568,61.198986 -0.113233,47.307884 0.444574,56.021588c0.457245,5.955196 0.739518,11.982234 0.767557,18.024709c0.30465,-0.004156 0.612805,-0.004156 0.926083,0.006531c-0.00674,0.480928 -0.004853,0.96245 0,1.445753c1.023679,-0.004156 2.048436,0.040374 3.074272,-0.014843c0.645427,-1.281287 0.956548,-2.436702 3.500513,-1.894619c0.465872,-0.021968 1.259041,1.167883 1.652121,2.203363c0.174972,0.498146 0.457245,0.704767 0.68452,1.077041c0.14882,0.323587 0.272568,0.706549 0.414648,1.064573c0.301685,-0.002375 0.606065,-0.002375 0.916377,-0.008312c0.362615,-0.759985 0.744371,-1.533032 1.204582,-2.007429c1.660479,-3.859299 2.538573,-2.747227 5.053151,-2.948505c0.344282,-0.836577 0.865153,-1.034886 1.335069,-1.36263c0.719298,-0.440554 1.462861,0.142497 2.187821,0.157341c0.769444,-0.704767 1.601975,-0.040374 2.397571,0.002375c0.658368,-0.568208 1.366882,-0.221464 2.048436,-0.070061c0.482588,0.057593 0.804223,1.036667 1.260659,1.290193c2.388944,0.232152 7.039848,-2.642136 8.207764,-2.557231c0.739518,0.080748 1.385485,-1.062198 2.132552,-0.932763c1.665601,0.127654 3.350884,-0.272526 5.000039,0.417398c0.231049,0.18109 0.438912,0.600269 0.708514,0.519521c4.632572,-0.040374 9.2673,0.048687 13.898794,-0.036218c0.593664,-0.828265 1.281958,-1.189852 1.954884,-1.601312c0.376095,-0.210777 0.770523,-0.108654 1.161985,-0.121123c5.994332,-0.051061 7.880467,-1.406566 10.24272,9.075884c1.350706,8.115216 1.353672,13.949882 -0.746258,23.859969c-0.459132,2.314986 -2.456883,6.42603 -3.405882,6.762086c-1.996942,0.699424 0.783194,0.653112 -5.999724,0.643019c-0.832261,-0.019 -2.470903,-0.035624 -3.133315,-1.183914c-0.391732,-0.731486 0.488788,-0.531396 -13.68419,-0.538521c-1.514355,-0.098561 -1.934395,0.960075 -2.806557,0.879326c-2.85239,-0.005344 -4.196356,0.201277 -5.414687,-0.830046c-5.079302,-1.550845 -4.200939,-2.332204 -8.795497,-2.635605c-0.505504,-0.048687 -0.962749,0.489834 -1.445337,0.691705c-0.659177,0.264214 -1.307031,-0.347337 -1.955693,-0.280838c-0.73844,0.593738 -1.517859,0.227996 -2.261152,-0.078967c-0.800448,0.619269 -1.664793,0.410867 -2.466319,-0.057593c-0.708784,-0.68933 -2.672295,0.147841 -4.001433,-0.549208c-0.730352,-0.081936 -1.68717,-2.62373 -1.956772,-2.912287c-0.352909,-0.423929 -0.660255,-0.979075 -0.904784,-1.671373c-0.308425,-0.174559 -0.633295,-0.08728 -0.939833,-0.04453c-0.353987,0.817578 -0.824713,1.349567 -1.168725,2.161208c-0.02723,2.969879 0,5.944508 -0.012671,8.914388c1.11076,2.855288 2.171375,5.801417 3.289954,8.641862c0.002696,1.948056 -0.003774,3.896111 0.003774,5.844167c-3.842099,4.536755 -2.745627,3.877705 -8.381658,3.921642c-1.055762,-1.128697 -2.107479,-2.275799 -3.157309,-3.423495c0.042328,-7.542258 -0.668343,-3.318997 3.093683,-14.575683c0.023186,-0.790266 0.089777,-8.377648 -0.045293,-9.099634c-1.352593,0.032062 -2.704917,0.004156 -4.055623,0.017218c-0.056077,0.700611 -0.110267,1.400629 -0.145855,2.105396c-0.329723,0.100342 -0.727925,-0.119341 -1.000493,0.3129c-1.018287,3.522056 -2.28946,6.11313 -4.190964,6.106005c-32.435551,-0.060561 -20.271377,-0.126466 -37.061113,1.09426c-0.065783,1.816246 -0.072523,3.662178 -0.297641,5.430925c-1.707659,13.330613 -0.306268,4.870436 -2.65558,17.124008c-0.123208,0.667362 -0.1286,0.577707 -1.993437,6.48956c-0.158256,0.501709 -2.277868,4.330134 -3.116869,5.229054c-0.749224,0.833015 -3.812442,2.509138 -4.669507,2.503795c-0.839541,0.06828 -1.39573,-0.170403 -4.251894,-2.103615c-0.308964,-0.143685 -1.494134,-2.547138 -2.320195,-4.062358c-0.379869,-0.974918 -0.898044,-1.643468 -1.425116,-2.143989c-0.751381,-0.010094 2.994739,-0.227996 -88.582871,5.891072c-36.627863,2.396922 -31.899582,3.373028 -34.568912,-0.396023c-2.819228,-4.420382 -3.301277,-23.759627 -3.433921,-31.38204c-1.286811,0.006531 -2.573351,0.019 -3.858275,0.010687c-0.00647,24.549893 0.342934,24.549893 -1.138799,28.054137c-1.607367,3.994672 -3.856387,3.320185 -4.576495,3.346903c-7.808214,0.055218 -10.59536,-1.562126 -12.81715,6.050787c-1.18544,4.06117 -0.912333,-0.350899 -0.896157,58.278387c-0.02022,0.662018 0.077376,1.458221 -0.159604,1.98843c-0.339429,1.015293 -0.973533,0.892389 -1.462591,1.27535c1.528644,29.825258 3.252209,43.625519 4.698355,57.213815c8.085365,62.918453 7.162517,56.670544 7.768852,58.074141c0.713367,1.494439 1.373622,3.110595 2.091033,4.600878c0.286048,2.806007 0.544327,5.629233 0.841158,8.432866c-19.533207,9.433909 -39.07504,18.786475 -58.607977,28.222759c-1.028801,-8.057623 -0.86704,-6.397531 -1.790427,-15.827283c0.351022,-0.174559 0.705818,-0.342587 1.061423,-0.506459c-8.099924,-59.061528 -10.477544,-86.169246 -12.214859,-111.610934c-6.289276,3.135532 -3.62426,2.49667 -35.510632,2.546544c-0.924465,-0.060561 -4.156994,1.020042 -6.925807,-5.539579c-1.266321,-2.93188 -2.053289,-6.853522 -2.185933,-10.887974c-40.977083,143.808771 -38.652035,136.401292 -39.126265,136.831752c-2.448795,3.963797 -15.69677,-9.990241 -39.269154,-32.161619c-1.592,-1.557969 -6.95088,-6.789398 -6.982962,-10.879661c0.236171,-1.113853 -2.372768,5.432706 40.080386,-97.742394c0.003774,-7.56007 -0.001078,-15.11836 0.001887,-22.676649c-4.013026,-10.504419 -8.013381,-21.032587 -12.011849,-31.565505c-7.37739,-0.036218 -14.755589,-0.004156 -22.133788,-0.017218c-1.656974,-0.002375 -3.243312,-2.518638 -3.765532,-5.984883c-0.302493,-1.737278 -0.22323,-3.627741 -0.228083,-5.446362c-0.466951,0.014843 -0.932823,0.040374 -1.397887,-0.033843c-0.038553,1.63278 0.003774,3.267936 -0.018333,4.903091c-0.640844,0.227996 -1.291663,0.168028 -1.936282,0.232152c-0.005931,1.202914 -0.003774,2.405828 0,3.611117c-0.960862,0.375243 -9.821602,0.553364 -11.800211,0.140716c-0.001887,-1.202914 0.001887,-2.403453 0,-3.606367c-0.655403,-0.072436 -1.313771,-0.010687 -1.96432,-0.204246c-0.005662,-1.63278 0.011593,-3.266155 -0.003774,-4.89656c0.31813,-0.038593 0.645697,0.014843 0.958974,-0.153184c0.023186,-0.064124 0.070636,-0.195934 0.093822,-0.260057c-22.712623,-0.163278 -21.234126,1.277131 -22.80267,-3.553524c0.00674,-1.417847 -0.002966,-2.838069 0.007818,-4.255916c-21.582721,0.033843 -43.163286,0.008312 -64.744928,0.021375c-0.536238,-0.140716 -0.160952,-0.096779 -11.397965,6.516872c-13.61679,9.832307 -32.123891,39.583942 -63.230035,86.588426c0.387688,1.068729 0.727117,2.218206 1.115613,3.28931c-4.886806,9.478439 -9.739913,19.044157 -14.617283,28.543971c-0.208672,0.324181 0.232936,0.045124 -7.857821,3.706709c-2.983686,1.063979 1.839225,0.574145 -12.662399,0.732673c-1.156323,-3.780926 -2.289191,-7.594507 -3.446323,-11.373058c0.000809,-4.610378 0.014828,-152.038579 -0.009706,-159.095159c-1.412445,-6.931895 -2.921408,-13.772948 -4.346524,-20.694156c0.21649,-3.078533 0.452392,-6.150536 0.653515,-9.2356c4.676517,-9.020073 1.283575,-4.106888 6.403857,-9.784808c-0.005931,-0.789672 -0.007818,-1.577563 -0.001887,-2.365454c27.354631,0.093217 17.292005,-0.536146 29.774849,2.186738c-0.016446,2.133302 -0.036666,4.266604 -0.03397,6.399906c48.130434,0.084905 96.260867,0.146653 144.394266,0.170403c0,-2.661135 0.00674,-5.322864 0.001078,-7.981625c1.233969,-3.444276 -0.557537,-1.974774 22.746593,-8.226839c0.002966,-0.566426 0.011593,-1.132853 0.031004,-1.696904c-0.348865,-0.176934 -0.71148,-0.261839 -1.031497,-0.629956c0.005662,-1.528876 0.007818,-3.059534 -0.005931,-4.586035c0.62359,-0.564051 1.312962,-0.545052 1.975913,-0.679237c0,-1.196383 0.004853,-2.392766 0.001887,-3.589742c1.552638,-1.194602 10.840428,-0.813422 11.799133,0.517146c-0.012671,1.158384 -0.004853,2.318548 0.001078,3.478713c0.644888,0.251151 1.341809,0.18109 1.933586,0.872795c-0.009706,1.511658 0.02696,3.027472 -0.008627,4.536755c-0.034779,0.072436 -0.103527,0.221464 -0.137227,0.2939c0.502808,-0.300432 1.033385,-0.025531 1.548864,-0.119341c-0.080341,-0.798578 -0.1623,-1.596562 -0.253426,-2.388609c3.402917,-20.910277 3.7596,-24.120027 5.136458,-26.16783c0.272837,-0.397805 0.107302,-0.170403 7.067887,-0.24462c0.003774,-3.455557 0.003774,-6.911114 0.001078,-10.366078c1.774521,-4.013671 3.722665,-4.611566 4.237335,-4.947622c-0.025073,-6.399906 -0.002966,-12.802186 -0.007818,-19.199717c0.356414,-4.724376 2.047358,-8.769515 4.12572,-10.104833m337.59378,43.88617c-1.868612,0.845483 -3.735606,1.70106 -5.604217,2.52695c24.99777,-0.052249 20.530464,0.305775 23.131315,-0.717236c-18.5284,-2.758508 -16.229503,-2.367235 -17.527098,-1.809714m90.092103,57.118223c-0.4133,1.56925 -0.59609,4.723189 1.121544,6.165973c0.505504,-1.380442 0.659177,-5.001652 -1.121544,-6.165973m-631.251864,14.611307c0.002966,1.80734 -0.001887,3.612898 0.003774,5.420831c-0.594203,-0.012469 -5.14832,-0.466678 -6.006464,-0.451241c0.003774,35.103592 0.004853,70.20956 0,105.313152c1.209435,2.067397 2.372498,4.266604 3.596222,6.287095c0.775375,-0.027906 1.539158,-0.432242 2.314264,-0.500521c0.663221,1.062198 1.280879,2.267487 1.938439,3.35759c20.41804,-30.731897 30.906908,-46.731958 32.448762,-48.857541c-0.200045,0.019 -0.398202,0.04453 -0.595551,0.070061c0.010514,-23.541132 -0.002966,-47.08167 0.007818,-70.624583c-11.236204,-0.012469 -22.47079,-0.046312 -33.707264,-0.014843m100.888856,0.070655c-0.008627,8.906075 0,17.809182 -0.005662,26.715257c2.957804,0.025531 37.464977,0.02375 43.524822,0.013062c-0.003774,-8.899544 -0.002966,-17.799088 0.001078,-26.700413c-14.506207,-0.032656 -29.013223,-0.034437 -43.520239,-0.027906m484.699703,18.550167c-0.26394,0.753454 -0.523028,1.511658 -0.790743,2.252643c-0.00674,0.813422 -0.003774,1.626843 -0.005931,2.439671c1.206199,0.001781 7.835983,-0.431054 8.10909,-0.44471c-0.008627,-0.836577 0.018333,-1.67553 -0.018333,-2.507951c-0.20975,-0.817578 -0.546214,-1.432691 -0.784003,-2.203363c-2.171105,0.106279 -4.340593,0.282619 -6.51008,0.46371m-528.279793,22.831614c7.7028,-8.075435 5.111655,-5.30624 7.283569,-6.853522c16.911057,-9.93918 11.833372,-7.431229 14.872327,-7.807066c4.404488,0.048687 8.810055,-0.046905 13.214544,0.042749c-6.213248,-4.458381 -2.13417,-3.246561 -25.650746,-3.172344c-3.230911,5.952821 -6.482042,11.852799 -9.719693,17.790182m210.5449,43.443241c-0.008627,13.321707 0.003774,26.642821 -0.004853,39.962153c0.039631,4.681627 1.075982,9.256975 2.728103,12.195386c2.602468,4.599097 1.281149,3.58618 33.764689,3.55768c0.615771,-0.170403 1.21914,-0.551583 1.82224,-0.887639c-0.071984,-53.030928 0.51494,-50.513477 -1.399774,-54.810362c-19.97832,-0.132404 -16.556531,-0.642425 -20.300764,2.987098c-1.814152,1.564501 -4.834234,7.27567 -6.630053,15.665786c-1.553986,8.058811 -1.833294,13.260552 -0.541361,24.451926c0.201932,1.954587 0.730891,3.619429 1.094315,5.435675c0.466681,2.343485 1.708738,5.064588 1.914174,6.342313c-1.968095,0.523677 -6.276605,-8.610987 -7.613292,-12.324821c-0.057156,-1.899369 -0.027769,-41.971364 -0.02696,-42.565696c-1.602514,-0.0095 -3.20449,-0.013656 -4.806465,-0.0095z"/>
  </g>
 </g>
</svg>