<svg width="800" height="800" xmlns="http://www.w3.org/2000/svg" style="vector-effect: non-scaling-stroke;" stroke="null">
 <!-- Created with Method Draw - http://github.com/duopixel/Method-Draw/ -->

 <g stroke="null">
  <title stroke="null">background</title>
  <rect stroke="null" x="-1" y="-1" width="802" height="802" id="canvas_background" fill="#86a16e"/>
  <g stroke="null" id="canvasGrid" display="none">
   <rect stroke="null" id="svg_1" width="100%" height="100%" x="0" y="0" stroke-width="0" fill="url(#gridpattern)"/>
  </g>
 </g>
 <g stroke="null">
  <title stroke="null">Layer 1</title>
  <g stroke="null" transform="rotate(-180 406.59027099609375,420.2554931640625) " id="svg_6">
   <path stroke="null" d="m301.853452,600.209279c0.432981,0.365366 0.421927,0.296512 4.858768,0.296512c1.741899,-0.187681 8.009068,-8.749337 8.223132,-10.314079c0.271489,-0.350373 1.999638,-2.765784 2.110445,-3.438767c1.159019,-6.313938 1.826284,-12.993796 2.034147,-19.725849c1.48389,-1.071109 3.019273,-1.853481 4.57946,-2.271596c1.286271,-0.560264 0.233475,1.072775 3.113903,-3.61201c-0.012671,-0.891758 -0.011593,-1.785738 -0.011593,-2.680272c40.73498,0.039979 81.470769,-0.012216 122.20548,0.026098c1.412984,5.90304 5.750611,5.778105 7.331827,0.003887c9.493496,-0.057748 18.98888,0.027763 28.482376,-0.041645c0.015367,0.555266 -0.147472,4.058445 1.016939,8.310677c0.572365,1.831825 0.233206,1.389277 5.858452,1.409822c0.888339,-0.047752 1.785574,0.117717 2.671217,-0.113275c0.276612,-0.398126 0.492024,-0.940066 0.666187,-1.536978c13.159006,-0.236544 1.297864,1.222142 32.864488,-4.453794c0.002966,-1.202707 -0.00674,-2.405416 0.005662,-3.605902c109.537419,0.128267 105.294692,-0.167135 107.504081,0.123269c-0.447539,0.213223 -0.904784,-0.079404 -1.344775,0.121604c0.299258,0.392018 3.537179,1.67524 3.80705,1.77019c1.281958,0.037758 2.56769,0.03165 3.851535,-0.006108c0.31813,-0.501406 -0.462637,-0.181572 16.345702,-0.292625c2.289191,28.344698 1.530261,23.205705 2.886629,26.829931c0.882677,2.440397 3.608084,4.801946 6.109721,3.944614c0.473691,-0.057748 0.883755,-0.601354 1.336956,-0.856222c2.458231,6.198997 7.81118,6.620444 9.825107,1.162728c0.322983,-0.876211 0.744371,-1.62471 0.935789,-2.684159c0.154752,-0.856222 0.496877,-1.62471 0.447539,-2.59254c-0.021568,-57.233558 -0.113233,-44.242539 0.444574,-52.391632c0.457245,-5.569325 0.739518,-11.205837 0.767557,-16.856786c0.30465,0.003887 0.612805,0.003887 0.926083,-0.006108c-0.00674,-0.449766 -0.004853,-0.900087 0,-1.352074c1.023679,0.003887 2.048436,-0.037758 3.074272,0.013881c0.645427,1.198265 0.956548,2.278814 3.500513,1.771856c0.465872,0.020545 1.259041,-1.092209 1.652121,-2.060595c0.174972,-0.465868 0.457245,-0.659101 0.68452,-1.007253c0.14882,-0.30262 0.272568,-0.660768 0.414648,-0.995593c0.301685,0.002221 0.606065,0.002221 0.916377,0.007773c0.362615,0.710741 0.744371,1.433698 1.204582,1.877356c1.660479,3.609233 2.538573,2.569219 5.053151,2.757455c0.344282,0.78237 0.865153,0.96783 1.335069,1.274337c0.719298,0.412008 1.462861,-0.133264 2.187821,-0.147146c0.769444,0.659101 1.601975,0.037758 2.397571,-0.002221c0.658368,0.531391 1.366882,0.207114 2.048436,0.065521c0.482588,-0.053861 0.804223,-0.969495 1.260659,-1.206594c2.388944,-0.21711 7.039848,2.470937 8.207764,2.391534c0.739518,-0.075516 1.385485,0.993372 2.132552,0.872324c1.665601,-0.119383 3.350884,0.254867 5.000039,-0.390352c0.231049,-0.169356 0.438912,-0.561374 0.708514,-0.485858c4.632572,0.037758 9.2673,-0.045532 13.898794,0.033871c0.593664,0.774597 1.281958,1.112755 1.954884,1.497554c0.376095,0.19712 0.770523,0.101614 1.161985,0.113275c5.994332,0.047752 7.880467,1.315427 10.24272,-8.487806c1.350706,-7.589385 1.353672,-13.04599 -0.746258,-22.313947c-0.459132,-2.164985 -2.456883,-6.009651 -3.405882,-6.323932c-1.996942,-0.654104 0.783194,-0.610793 -5.999724,-0.601354c-0.832261,0.017769 -2.470903,0.033316 -3.133315,1.107202c-0.391732,0.684089 0.488788,0.496964 -13.68419,0.503627c-1.514355,0.092175 -1.934395,-0.897866 -2.806557,-0.822349c-2.85239,0.004998 -4.196356,-0.188235 -5.414687,0.776263c-5.079302,1.450357 -4.200939,2.181087 -8.795497,2.464829c-0.505504,0.045532 -0.962749,-0.458095 -1.445337,-0.646886c-0.659177,-0.247094 -1.307031,0.324831 -1.955693,0.262641c-0.73844,-0.555266 -1.517859,-0.213223 -2.261152,0.07385c-0.800448,-0.579143 -1.664793,-0.384245 -2.466319,0.053861c-0.708784,0.644664 -2.672295,-0.138262 -4.001433,0.513622c-0.730352,0.076627 -1.68717,2.453724 -1.956772,2.723583c-0.352909,0.39646 -0.660255,0.915635 -0.904784,1.563075c-0.308425,0.163248 -0.633295,0.081625 -0.939833,0.041645c-0.353987,-0.764602 -0.824713,-1.262121 -1.168725,-2.021171c-0.02723,-2.777444 0,-5.55933 -0.012671,-8.336774c1.11076,-2.670278 2.171375,-5.42551 3.289954,-8.081907c0.002696,-1.82183 -0.003774,-3.64366 0.003774,-5.46549c-3.842099,-4.242793 -2.745627,-3.626447 -8.381658,-3.667537c-1.055762,1.055562 -2.107479,2.128337 -3.157309,3.201667c0.042328,7.053552 -0.668343,3.10394 3.093683,13.631242c0.023186,0.73906 0.089777,7.834813 -0.045293,8.510017c-1.352593,-0.029985 -2.704917,-0.003887 -4.055623,-0.016102c-0.056077,-0.655214 -0.110267,-1.309874 -0.145855,-1.968975c-0.329723,-0.09384 -0.727925,0.111608 -1.000493,-0.292625c-1.018287,-3.293842 -2.28946,-5.717026 -4.190964,-5.710362c-32.435551,0.056637 -20.271377,0.118272 -37.061113,-1.023357c-0.065783,-1.698561 -0.072523,-3.424885 -0.297641,-5.079025c-1.707659,-12.466847 -0.306268,-4.554853 -2.65558,-16.014447c-0.123208,-0.62412 -0.1286,-0.540274 -1.993437,-6.069065c-0.158256,-0.4692 -2.277868,-4.04956 -3.116869,-4.890234c-0.749224,-0.779039 -3.812442,-2.346557 -4.669507,-2.34156c-0.839541,-0.063856 -1.39573,0.159362 -4.251894,1.96731c-0.308964,0.134375 -1.494134,2.382095 -2.320195,3.799135c-0.379869,0.911748 -0.898044,1.536978 -1.425116,2.005068c-0.751381,0.00944 2.994739,0.213223 -88.582871,-5.509356c-36.627863,-2.241612 -31.899582,-3.15447 -34.568912,0.370362c-2.819228,4.13396 -3.301277,22.220106 -3.433921,29.34862c-1.286811,-0.006108 -2.573351,-0.017769 -3.858275,-0.009995c-0.00647,-22.959167 0.342934,-22.959167 -1.138799,-26.236351c-1.607367,-3.735835 -3.856387,-3.105051 -4.576495,-3.130038c-7.808214,-0.05164 -10.59536,1.460907 -12.81715,-5.658722c-1.18544,-3.798024 -0.912333,0.328162 -0.896157,-54.502201c-0.02022,-0.619122 0.077376,-1.363735 -0.159604,-1.859588c-0.339429,-0.949506 -0.973533,-0.834566 -1.462591,-1.192713c1.528644,-27.892711 3.252209,-40.798775 4.698355,-53.506608c8.085365,-58.841611 7.162517,-52.998539 7.768852,-54.311189c0.713367,-1.397606 1.373622,-2.909042 2.091033,-4.302761c0.286048,-2.62419 0.544327,-5.264483 0.841158,-7.886453c-19.533207,-8.822633 -39.07504,-17.569193 -58.607977,-26.394047c-1.028801,7.535524 -0.86704,5.982999 -1.790427,14.801744c0.351022,0.163248 0.705818,0.320389 1.061423,0.473643c-8.099924,55.234598 -10.477544,80.585853 -12.214859,104.37903c-6.289276,-2.932363 -3.62426,-2.334897 -35.510632,-2.381539c-0.924465,0.056637 -4.156994,-0.953948 -6.925807,5.180638c-1.266321,2.741907 -2.053289,6.409444 -2.185933,10.182481c-40.977083,-134.490587 -38.652035,-127.563081 -39.126265,-127.965649c-2.448795,-3.70696 -15.69677,9.342917 -39.269154,30.077686c-1.592,1.457019 -6.95088,6.349474 -6.982962,10.174706c0.236171,1.04168 -2.372768,-5.08069 40.080386,91.409111c0.003774,7.07021 -0.001078,14.138756 0.001887,21.207301c-4.013026,9.823778 -8.013381,19.669767 -12.011849,29.520197c-7.37739,0.033871 -14.755589,0.003887 -22.133788,0.016102c-1.656974,0.002221 -3.243312,2.355441 -3.765532,5.597089c-0.302493,1.62471 -0.22323,3.392679 -0.228083,5.093461c-0.466951,-0.013881 -0.932823,-0.037758 -1.397887,0.03165c-0.038553,-1.526983 0.003774,-3.056188 -0.018333,-4.585392c-0.640844,-0.213223 -1.291663,-0.157141 -1.936282,-0.21711c-0.005931,-1.12497 -0.003774,-2.249941 0,-3.377132c-0.960862,-0.350929 -9.821602,-0.517508 -11.800211,-0.131598c-0.001887,1.12497 0.001887,2.24772 0,3.37269c-0.655403,0.067742 -1.313771,0.009995 -1.96432,0.191012c-0.005662,1.526983 0.011593,3.054522 -0.003774,4.579284c0.31813,0.036092 0.645697,-0.013881 0.958974,0.143258c0.023186,0.059969 0.070636,0.183238 0.093822,0.243206c-22.712623,0.152698 -21.234126,-1.194378 -22.80267,3.323271c0.00674,1.325977 -0.002966,2.654174 0.007818,3.980151c-21.582721,-0.03165 -43.163286,-0.007773 -64.744928,-0.01999c-0.536238,0.131598 -0.160952,0.090508 -11.397965,-6.094607c-13.61679,-9.195216 -32.123891,-37.019074 -63.230035,-80.977872c0.387688,-0.99948 0.727117,-2.074476 1.115613,-3.076177c-4.886806,-8.864277 -9.739913,-17.810178 -14.617283,-26.694446c-0.208672,-0.303175 0.232936,-0.0422 -7.857821,-3.46653c-2.983686,-0.995038 1.839225,-0.536943 -12.662399,-0.685199c-1.156323,3.535938 -2.289191,7.102416 -3.446323,10.636133c0.000809,4.311646 0.014828,142.187139 -0.009706,148.786484c-1.412445,6.482738 -2.921408,12.880521 -4.346524,19.353265c0.21649,2.879057 0.452392,5.752008 0.653515,8.637173c4.676517,8.435611 1.283575,3.840779 6.403857,9.150795c-0.005931,0.738505 -0.007818,1.475344 -0.001887,2.212183c27.354631,-0.087177 17.292005,0.501406 29.774849,-2.045047c-0.016446,-1.995073 -0.036666,-3.990147 -0.03397,-5.98522c48.130434,-0.079404 96.260867,-0.137151 144.394266,-0.159362c0,2.488705 0.00674,4.977966 0.001078,7.46445c1.233969,3.221102 -0.557537,1.846817 22.746593,7.693776c0.002966,0.529724 0.011593,1.059449 0.031004,1.586952c-0.348865,0.165469 -0.71148,0.244873 -1.031497,0.589138c0.005662,1.429811 0.007818,2.861289 -0.005931,4.28888c0.62359,0.527503 1.312962,0.509735 1.975913,0.635225c0,1.118863 0.004853,2.237725 0.001887,3.357142c1.552638,1.117197 10.840428,0.760716 11.799133,-0.483637c-0.012671,-1.083326 -0.004853,-2.168316 0.001078,-3.253308c0.644888,-0.234878 1.341809,-0.169356 1.933586,-0.816242c-0.009706,-1.413709 0.02696,-2.831305 -0.008627,-4.242793c-0.034779,-0.067742 -0.103527,-0.207114 -0.137227,-0.274857c0.502808,0.280965 1.033385,0.023877 1.548864,0.111608c-0.080341,0.746834 -0.1623,1.493112 -0.253426,2.233838c3.402917,19.555382 3.7596,22.557154 5.136458,24.472268c0.272837,0.372029 0.107302,0.159362 7.067887,0.22877c0.003774,3.231652 0.003774,6.463304 0.001078,9.694401c1.774521,3.753603 3.722665,4.312757 4.237335,4.627038c-0.025073,5.98522 -0.002966,11.97266 -0.007818,17.955659c0.356414,4.418257 2.047358,8.201289 4.12572,9.450084m337.59378,-41.042537c-1.868612,-0.790699 -3.735606,-1.590839 -5.604217,-2.363215c24.99777,0.048863 20.530464,-0.285962 23.131315,0.670762c-18.5284,2.579769 -16.229503,2.213848 -17.527098,1.692452m90.092103,-53.41721c-0.4133,-1.467569 -0.59609,-4.417147 1.121544,-5.766445c0.505504,1.290995 0.659177,4.677567 -1.121544,5.766445m-631.251864,-13.664558c0.002966,-1.690232 -0.001887,-3.378798 0.003774,-5.069585c-0.594203,0.011661 -5.14832,0.436439 -6.006464,0.422003c0.003774,-32.829032 0.004853,-65.660285 0,-98.489317c1.209435,-1.933439 2.372498,-3.990147 3.596222,-5.879719c0.775375,0.026098 1.539158,0.404235 2.314264,0.468089c0.663221,-0.993372 1.280879,-2.120564 1.938439,-3.140033c20.41804,28.740604 30.906908,43.70393 32.448762,45.691785c-0.200045,-0.017769 -0.398202,-0.041645 -0.595551,-0.065521c0.010514,22.015769 -0.002966,44.030982 0.007818,66.048417c-11.236204,0.011661 -22.47079,0.043311 -33.707264,0.013881m100.888856,-0.066077c-0.008627,-8.329 0,-16.655224 -0.005662,-24.984224c2.957804,-0.023877 37.464977,-0.022211 43.524822,-0.012216c-0.003774,8.322892 -0.002966,16.645784 0.001078,24.970342c-14.506207,0.03054 -29.013223,0.032206 -43.520239,0.026098m484.699703,-17.348197c-0.26394,-0.704633 -0.523028,-1.413709 -0.790743,-2.106682c-0.00674,-0.760716 -0.003774,-1.521431 -0.005931,-2.281591c1.206199,-0.001666 7.835983,0.403124 8.10909,0.415895c-0.008627,0.78237 0.018333,1.566963 -0.018333,2.345447c-0.20975,0.764602 -0.546214,1.339859 -0.784003,2.060595c-2.171105,-0.099393 -4.340593,-0.264307 -6.51008,-0.433664m-528.279793,-21.352225c7.7028,7.552182 5.111655,4.962419 7.283569,6.409444c16.911057,9.295164 11.833372,6.949718 14.872327,7.301202c4.404488,-0.045532 8.810055,0.043866 13.214544,-0.039979c-6.213248,4.169497 -2.13417,3.036198 -25.650746,2.96679c-3.230911,-5.567104 -6.482042,-11.084789 -9.719693,-16.637455m210.5449,-40.628308c-0.008627,-12.458518 0.003774,-24.916482 -0.004853,-37.372779c0.039631,-4.378278 1.075982,-8.657163 2.728103,-11.405178c2.602468,-4.301095 1.281149,-3.353811 33.764689,-3.327158c0.615771,0.159362 1.21914,0.515843 1.82224,0.830124c-0.071984,49.594754 0.51494,47.240423 -1.399774,51.258889c-19.97832,0.123825 -16.556531,0.600799 -20.300764,-2.793547c-1.814152,-1.463128 -4.834234,-6.804238 -6.630053,-14.650711c-1.553986,-7.536635 -1.833294,-12.401326 -0.541361,-22.867547c0.201932,-1.827938 0.730891,-3.384906 1.094315,-5.083467c0.466681,-2.191637 1.708738,-4.736425 1.914174,-5.931359c-1.968095,-0.489745 -6.276605,8.053032 -7.613292,11.526226c-0.057156,1.776298 -0.027769,39.251802 -0.02696,39.807624c-1.602514,0.008884 -3.20449,0.012771 -4.806465,0.008884l0.000001,-0.000001z" id="svg_5" fill="#007fff"/>
  </g>
 </g>
</svg>